<svg width="1600" height="900" viewBox="0 0 1600 900" fill="none" xmlns="http://www.w3.org/2000/svg">
  <rect width="1600" height="900" fill="#071126"/>
  <rect y="640" width="1600" height="260" fill="#091B2E"/>
  <circle cx="1260" cy="170" r="170" fill="#2EA3DF" fill-opacity="0.18"/>
  <path d="M1100 180L980 430H1110L1035 710L1260 390H1135L1225 180H1100Z" fill="#7FDBFF" fill-opacity="0.9"/>
  <path d="M1220 140L1125 345H1215L1160 560L1340 315H1245L1315 140H1220Z" fill="#F7FBFF" fill-opacity="0.78"/>
  <circle cx="1080" cy="260" r="10" fill="#F47B20"/>
  <circle cx="1330" cy="250" r="14" fill="#F47B20" fill-opacity="0.7"/>
  <path d="M0 735C164 685 308 683 450 729C603 778 752 779 914 732C1063 690 1188 690 1334 730C1438 758 1526 770 1600 767V900H0V735Z" fill="#0D2841"/>
</svg>
